# xmcd
#
# Track frame offsets: 
#        182
#        16740
#        57975
#        85420
#        104205
#        118062
#        143707
#        170602
#        181195
#
# Disc length: 2738 seconds
#
# Revision: 5
# Processed by: cddbd v1.5.2PL0 Copyright (c) Steve Scherf et al.
# Submitted via: ExactAudioCopy v0.99pb5
#
DISCID=790ab009
DTITLE=The Butterfield Blues Band - The Resurrection of Pigboy Crabsha
DTITLE=w
DYEAR=1968
DGENRE=Blues
TTITLE0=One More Heartache
TTITLE1=Driftin' and Driftin'
TTITLE2=Pity the Fool
TTITLE3=Born Under a Bad Sign
TTITLE4=Run Out of Time
TTITLE5=Double Trouble
TTITLE6=Drivin' Wheel
TTITLE7=Droppin' Out
TTITLE8=Tollin' Bells
EXTD=Paul Butterfield: harmonica, vocals\nElvin Bishop: guitar\nMark N
EXTD=aftalin: keyboards\nBugsy Maugh: vocal (track 7), bass\nPhil Wils
EXTD=on: drums\nKeith Johnson: trumpet\nDave Sanborn: alto sax\nGene D
EXTD=inwiddie: tenor sax\nProduced by John Court.\nTracks 1,5 issued a
EXTD=s Elektra 7" single EKSN 45020/45620 (1967-11).\nAll tracks issue
EXTD=d as Elektra LP EKL/EKS 75015 (1968-01).\nCD: Elektra 74015 (1989
EXTD=10-03), UPC 075596091121.
EXTT0=(Smokey Robinson/The Miracles)
EXTT1=(Charles Brown/Johnny Moore/Eddie Williams)
EXTT2=(Deadric Malone)
EXTT3=(Booker T. Jones/William Bell)
EXTT4=(Paul Butterfield/Gene Dinwiddie/Kathy Peterson)
EXTT5=(Otis Rush)
EXTT6=(Roosevelt Sykes)
EXTT7=(Paul Butterfield/Tucker Zimmerman)
EXTT8=(Willie Dixon)
PLAYORDER=
